<svg width="24" height="24" viewBox="0 0 24 24" fill="none" xmlns="http://www.w3.org/2000/svg">
<path fill-rule="evenodd" clip-rule="evenodd" d="M11.6571 9.38742C11.6439 9.41636 11.638 9.43537 11.6365 9.44124C11.6365 9.44124 11.6351 9.44693 11.6331 9.45982C11.6313 9.47236 11.6293 9.48912 11.6275 9.51044C11.624 9.5534 11.622 9.60848 11.6226 9.67475C11.6237 9.80742 11.6348 9.97168 11.6582 10.1513C11.6815 10.3304 11.7159 10.5155 11.7609 10.6928C11.7892 10.5818 11.8155 10.4576 11.8362 10.3247C11.8947 9.95035 11.8954 9.5918 11.8246 9.33685C11.7954 9.29203 11.7707 9.26055 11.7512 9.23874C11.7365 9.25562 11.7212 9.27584 11.7061 9.29887C11.6865 9.32878 11.6698 9.35955 11.6571 9.38742ZM12.3383 11.9088C12.3942 11.7908 12.4368 11.7049 12.4627 11.6593C12.6138 11.3936 12.7522 10.9407 12.8243 10.479C12.8964 10.0168 12.918 9.44897 12.7577 8.96968L12.7407 8.91887L12.7134 8.87281C12.5514 8.60024 12.346 8.37358 12.0765 8.26602C11.781 8.1481 11.5021 8.20913 11.2939 8.33124C11.1012 8.44419 10.9618 8.61027 10.8698 8.75066C10.7767 8.89258 10.7042 9.0512 10.6679 9.19278C10.6309 9.33692 10.6212 9.51521 10.6226 9.68295C10.6241 9.86112 10.6386 10.0661 10.6666 10.2805C10.7217 10.7035 10.8338 11.2005 11.026 11.6203L11.0352 11.6402L11.2153 11.9571C11.0848 12.2458 10.9355 12.5834 10.7832 12.9307C10.4686 13.6483 10.1265 14.4431 9.8766 15.0283C9.70148 15.0837 9.50302 15.1632 9.2932 15.2558C8.94464 15.4095 8.51932 15.6201 8.03414 15.8782C7.40016 16.2156 7.06453 16.6588 7.08168 17.1686C7.08939 17.3976 7.17017 17.5867 7.25369 17.7213C7.33412 17.851 7.43454 17.9582 7.52671 18.0256C7.92788 18.3189 8.36111 18.3597 8.75635 18.2057C9.11175 18.0673 9.39447 17.7886 9.60422 17.5269C9.98342 17.0537 10.261 16.4551 10.3755 16.2083C10.3885 16.1802 10.3995 16.1566 10.4082 16.1384C10.4192 16.1152 10.4287 16.0954 10.4367 16.0787C10.4439 16.0708 10.4489 16.0646 10.4519 16.0611L10.4525 16.0603C10.4703 16.0389 10.485 16.0181 10.4958 16.0022C10.5197 15.9672 10.5494 15.9188 10.5872 15.8533C11.3191 15.5754 12.3778 15.2222 13.361 14.9388C13.4187 14.9221 13.4761 14.9057 13.5331 14.8897C13.5816 14.9246 13.6299 14.9573 13.6777 14.9873C14.0521 15.2231 14.5844 15.4205 15.0484 15.5457C15.2848 15.6095 15.519 15.6588 15.7238 15.685C15.9017 15.7077 16.1414 15.7257 16.3377 15.6644C16.6674 15.5614 16.9079 15.387 17.0461 15.1442C17.1727 14.9218 17.1722 14.7063 17.172 14.6286C17.172 14.6259 17.172 14.6233 17.172 14.6208C17.172 14.3135 17.0485 14.0114 16.7528 13.7938C16.49 13.6005 16.131 13.5038 15.7078 13.4626C15.4281 13.4354 15.0145 13.5013 14.595 13.5903C14.3429 13.6437 14.0641 13.7112 13.7707 13.7883C13.5969 13.6255 13.4128 13.4303 13.233 13.2192C12.8918 12.8187 12.6083 12.4107 12.4731 12.1467L12.4681 12.137L12.3383 11.9088ZM11.8339 13.0255C12.0122 13.2958 12.2355 13.5904 12.4717 13.8677C12.5373 13.9447 12.6052 14.022 12.6749 14.0984C12.1571 14.2541 11.6324 14.4234 11.1539 14.5874C11.3296 14.1796 11.519 13.743 11.6991 13.3322C11.745 13.2273 11.7901 13.1248 11.8339 13.0255ZM9.13831 16.4341C8.94433 16.5303 8.73237 16.6394 8.50388 16.761C8.27218 16.8843 8.16542 16.9886 8.11881 17.0519C8.07923 17.1056 8.08088 17.1313 8.0811 17.1346C8.08146 17.1454 8.0861 17.1662 8.10338 17.1941C8.11453 17.212 8.12429 17.2225 8.12715 17.2257C8.24896 17.3114 8.32116 17.302 8.39338 17.2739C8.50744 17.2295 8.65622 17.1108 8.82387 16.9015C8.94044 16.7561 9.04589 16.5935 9.13831 16.4341ZM15.0812 14.5138C15.1567 14.5374 15.2329 14.5597 15.3089 14.5802C15.5138 14.6355 15.7021 14.674 15.8507 14.693C15.992 14.7111 16.0488 14.7065 16.0488 14.7065C16.0488 14.7065 16.0456 14.708 16.0395 14.7099C16.1169 14.6857 16.1556 14.6624 16.1715 14.651C16.1717 14.644 16.172 14.6342 16.172 14.6208C16.172 14.6154 16.1717 14.6113 16.1715 14.6085C16.1691 14.6063 16.1654 14.6032 16.1601 14.5993C16.1105 14.5627 15.9632 14.4922 15.611 14.4579C15.5309 14.4501 15.3546 14.465 15.0812 14.5138Z" fill="#C7C7C7"/>
<path d="M19.2857 10.9708V19.0047C19.2857 20.1093 18.3903 21.0047 17.2857 21.0047H7C5.89543 21.0047 5 20.1093 5 19.0047V4.41309C5 3.30852 5.89543 2.41309 7 2.41309H11" stroke="#C7C7C7" stroke-width="1.5" stroke-linecap="round"/>
<path d="M17.8477 2.34941C18.3135 1.88354 19.0687 1.88352 19.5346 2.34936C20.0004 2.81516 20.0004 3.57037 19.5346 4.0362L19.2374 4.33352L17.5505 2.64663L17.8477 2.34941ZM17.1969 3.00021L13.8643 6.33323C13.7289 6.4687 13.6337 6.63907 13.5893 6.8254L13.2241 8.35923C13.204 8.4437 13.2291 8.53253 13.2905 8.5939C13.3519 8.6553 13.4408 8.68043 13.5252 8.66033L15.059 8.29516C15.2454 8.25076 15.4158 8.15553 15.5513 8.02003L18.8838 4.6871L17.1969 3.00021Z" fill="#C7C7C7"/>
</svg>
