<svg width="18" height="18" viewBox="0 0 18 18" fill="none" xmlns="http://www.w3.org/2000/svg">
<path fill-rule="evenodd" clip-rule="evenodd" d="M16.2 7.19948C16.2003 8.04294 16.003 8.87472 15.6239 9.62817C15.2448 10.3816 14.6944 11.0358 14.017 11.5383C13.3395 12.0407 12.5538 12.3775 11.7227 12.5216C10.8917 12.6658 10.0384 12.6132 9.23135 12.3682L9.00005 12.5995L8.10005 13.4995L7.20005 14.3995H5.40005V16.1995H1.80005V12.5995L5.63135 8.76818C5.40675 8.02569 5.34476 7.24353 5.44959 6.47493C5.55442 5.70634 5.82361 4.96934 6.23884 4.31412C6.65407 3.6589 7.2056 3.10083 7.85587 2.6779C8.50615 2.25497 9.23991 1.9771 10.0072 1.86321C10.7745 1.74932 11.5574 1.80208 12.3025 2.0179C13.0475 2.23372 13.7374 2.60753 14.325 3.1139C14.9127 3.62027 15.3843 4.24729 15.7079 4.95231C16.0314 5.65732 16.1993 6.42377 16.2 7.19948V7.19948ZM10.8 3.59948C10.5614 3.59948 10.3324 3.6943 10.1637 3.86309C9.99487 4.03187 9.90005 4.26079 9.90005 4.49948C9.90005 4.73818 9.99487 4.96709 10.1637 5.13588C10.3324 5.30466 10.5614 5.39948 10.8 5.39948C11.2774 5.39948 11.7353 5.58912 12.0728 5.92669C12.4104 6.26426 12.6 6.72209 12.6 7.19948C12.6 7.43818 12.6949 7.66709 12.8637 7.83588C13.0324 8.00466 13.2614 8.09948 13.5 8.09948C13.7387 8.09948 13.9677 8.00466 14.1364 7.83588C14.3052 7.66709 14.4 7.43818 14.4 7.19948C14.4 6.2447 14.0208 5.32903 13.3456 4.6539C12.6705 3.97877 11.7548 3.59948 10.8 3.59948Z" fill="#222222"/>
</svg>
