<svg width="17" height="14" viewBox="0 0 17 14" fill="none" xmlns="http://www.w3.org/2000/svg">
<path d="M11.9471 10.7309L12.0818 10.8426L12.2453 10.7804L14.3846 9.96602L14.7943 10.5897V12.2H5.16766V10.9383L9.1024 8.37204L11.9471 10.7309Z" fill="#737373" stroke="#737373" stroke-width="0.599976"/>
<path d="M3.73814 7.22678C3.87628 7.10715 3.87628 6.89285 3.73814 6.77322L1.4964 4.83182C1.3021 4.66355 1 4.80157 1 5.05859L1 8.94141C1 9.19843 1.3021 9.33645 1.4964 9.16818L3.73814 7.22678Z" fill="#FF7200"/>
<path d="M6.32043 7L6.80012 7.57654C6.97138 7.43405 7.07043 7.22279 7.07043 7C7.07043 6.77721 6.97138 6.56595 6.80012 6.42346L6.32043 7ZM4.87799 8.20013L5.35768 8.77667L4.87799 8.20013ZM4.87799 5.79987L5.35768 5.22333L4.87799 5.79987ZM14.3347 12.25H5.51758V13.75H14.3347V12.25ZM5.51758 1.75H14.3347V0.25H5.51758V1.75ZM14.5847 2V3H16.0847V2H14.5847ZM14.5847 3V7H16.0847V3H14.5847ZM6.80012 6.42346L5.35768 5.22333L4.3983 6.37641L5.84074 7.57654L6.80012 6.42346ZM5.26758 5.03115V2H3.76758V5.03115H5.26758ZM5.26758 12V8.96885H3.76758V12H5.26758ZM5.35768 8.77667L6.80012 7.57654L5.84074 6.42346L4.3983 7.62359L5.35768 8.77667ZM14.5847 7V11H16.0847V7H14.5847ZM14.5847 11V12H16.0847V11H14.5847ZM5.26758 8.96885C5.26758 8.89459 5.30059 8.82417 5.35768 8.77667L4.3983 7.62359C3.99869 7.95607 3.76758 8.44901 3.76758 8.96885H5.26758ZM14.3347 1.75C14.4728 1.75 14.5847 1.86193 14.5847 2H16.0847C16.0847 1.0335 15.3012 0.25 14.3347 0.25V1.75ZM5.51758 12.25C5.37951 12.25 5.26758 12.1381 5.26758 12H3.76758C3.76758 12.9665 4.55108 13.75 5.51758 13.75V12.25ZM5.35768 5.22333C5.30059 5.17583 5.26758 5.10541 5.26758 5.03115H3.76758C3.76758 5.55099 3.99869 6.04393 4.3983 6.37641L5.35768 5.22333ZM14.3347 13.75C15.3012 13.75 16.0847 12.9665 16.0847 12H14.5847C14.5847 12.1381 14.4728 12.25 14.3347 12.25V13.75ZM5.51758 0.25C4.55108 0.25 3.76758 1.0335 3.76758 2H5.26758C5.26758 1.86193 5.37951 1.75 5.51758 1.75V0.25Z" fill="#707070"/>
<path d="M13.5 4.5C13.5 5.32843 12.8284 6 12 6C11.1716 6 10.5 5.32843 10.5 4.5C10.5 3.67157 11.1716 3 12 3C12.8284 3 13.5 3.67157 13.5 4.5Z" fill="#FF7200"/>
</svg>
